<?xml version="1.0" encoding="UTF-8"?>
<svg xmlns="http://www.w3.org/2000/svg" width="1200" height="630" viewBox="0 0 1200 630" role="img" aria-label="Remix Portfolio — cover by Bernal-XFK">
  <title>Remix Portfolio — Bernal-XFK</title>
  <defs>
    <linearGradient id="bg" x1="0" y1="0" x2="1" y2="1">
      <stop offset="0" stop-color="#4a00e0"/>
      <stop offset="0.45" stop-color="#170a3a"/>
      <stop offset="1" stop-color="#050505"/>
    </linearGradient>
    <linearGradient id="line" x1="0" y1="0" x2="1" y2="0">
      <stop offset="0" stop-color="#f27d26"/>
      <stop offset="1" stop-color="#00ffcc"/>
    </linearGradient>
    <radialGradient id="glowA" cx="0.5" cy="0.5" r="0.5">
      <stop offset="0" stop-color="#f27d26" stop-opacity="0.55"/>
      <stop offset="1" stop-color="#f27d26" stop-opacity="0"/>
    </radialGradient>
    <radialGradient id="glowB" cx="0.5" cy="0.5" r="0.5">
      <stop offset="0" stop-color="#00ffcc" stop-opacity="0.26"/>
      <stop offset="1" stop-color="#00ffcc" stop-opacity="0"/>
    </radialGradient>
    <pattern id="grid" width="52" height="52" patternUnits="userSpaceOnUse">
      <path d="M52 0H0V52" fill="none" stroke="#ffffff" stroke-opacity="0.07" stroke-width="1"/>
    </pattern>
  </defs>
  <rect width="1200" height="630" fill="url(#bg)"/>
  <rect width="1200" height="630" fill="url(#grid)"/>
  <circle cx="1020" cy="110" r="260" fill="url(#glowA)"/>
  <circle cx="180" cy="600" r="300" fill="url(#glowB)"/>
  <circle cx="950" cy="315" r="168" fill="#050505" fill-opacity="0.55" stroke="#00ffcc" stroke-opacity="0.5" stroke-width="2"/>
  <circle cx="950" cy="315" r="132" fill="none" stroke="#f27d26" stroke-opacity="0.65" stroke-width="2" stroke-dasharray="6 10"/>
  <circle cx="1064" cy="249" r="8" fill="#f27d26"/>
  <g fill="none" stroke-linecap="round" stroke-linejoin="round">
    <rect x="862" y="238" width="176" height="134" rx="14" fill="#0a0a14" fill-opacity="0.85" stroke="#00ffcc" stroke-width="5"/>
    <line x1="862" y1="268" x2="1038" y2="268" stroke="#00ffcc" stroke-width="3" stroke-opacity="0.5"/>
    <circle cx="880" cy="253" r="5" fill="#f27d26" stroke="none"/>
    <circle cx="898" cy="253" r="5" fill="#00ffcc" stroke="none" fill-opacity="0.7"/>
    <circle cx="916" cy="253" r="5" fill="#f5f5f5" stroke="none" fill-opacity="0.35"/>
    <rect x="878" y="284" width="84" height="14" rx="7" fill="#f27d26" stroke="none"/>
    <rect x="878" y="306" width="60" height="8" rx="4" fill="#f5f5f5" stroke="none" fill-opacity="0.5"/>
    <rect x="878" y="322" width="48" height="8" rx="4" fill="#f5f5f5" stroke="none" fill-opacity="0.3"/>
    <rect x="972" y="284" width="50" height="54" rx="8" fill="none" stroke="#f27d26" stroke-width="4"/>
    <circle cx="997" cy="304" r="8" fill="none" stroke="#00ffcc" stroke-width="3"/>
    <path d="M988 326l6-9 5 6 6-8 6 11z" fill="#00ffcc" stroke="none" fill-opacity="0.8"/>
    <rect x="878" y="342" width="52" height="14" rx="7" fill="none" stroke="#00ffcc" stroke-width="3"/>
    <path d="M1052 300l8 0M1056 296l0 8" stroke="#00ffcc" stroke-width="3"/>
    <circle cx="848" cy="350" r="5" fill="none" stroke="#f27d26" stroke-width="3"/>
  </g>
  <g font-family="Space Grotesk, Inter, system-ui, sans-serif">
    <rect x="80" y="84" width="228" height="44" rx="22" fill="none" stroke="#00ffcc" stroke-width="2" stroke-opacity="0.8"/>
    <circle cx="108" cy="106" r="6" fill="#00ffcc"/>
    <text x="126" y="114" font-size="19" letter-spacing="3" fill="#f5f5f5">BERNAL-XFK</text>
    <text x="80" y="300" font-size="84" font-weight="700" fill="#f5f5f5">Remix</text>
    <text x="80" y="388" font-size="84" font-weight="700" fill="#f5f5f5">Portfolio</text>
    <text x="82" y="440" font-family="JetBrains Mono, monospace" font-size="26" letter-spacing="2" fill="#00ffcc">REMIX • REACT • MOTION</text>
    <text x="82" y="478" font-size="22" fill="#f5f5f5" fill-opacity="0.65">Portafolio insignia • Animación • Remix</text>
    <line x1="80" y1="548" x2="1120" y2="548" stroke="url(#line)" stroke-width="2" stroke-opacity="0.5"/>
    <text x="80" y="592" font-family="JetBrains Mono, monospace" font-size="20" letter-spacing="2" fill="#f5f5f5" fill-opacity="0.8">JOSE BERNAL — CREATIVE DEVELOPER</text>
    <text x="1120" y="592" text-anchor="end" font-family="JetBrains Mono, monospace" font-size="16" fill="#f5f5f5" fill-opacity="0.5">remix-jose-bernal---creative-portfolio</text>
  </g>
</svg>
